<svg aria-hidden="true" style="position: absolute; width: 0; height: 0; overflow: hidden;" version="1.1" xmlns="http://www.w3.org/2000/svg" xmlns:xlink="http://www.w3.org/1999/xlink">
<defs>
<symbol id="icon-bookmark" viewBox="0 0 24 24">
<path d="M18.419 21.814c0.161 0.116 0.363 0.186 0.581 0.186 0.552 0 1-0.448 1-1v-16c0-0.828-0.337-1.58-0.879-2.121s-1.293-0.879-2.121-0.879h-10c-0.828 0-1.58 0.337-2.121 0.879s-0.879 1.293-0.879 2.121v16c-0.001 0.199 0.060 0.404 0.186 0.581 0.321 0.449 0.946 0.554 1.395 0.232l6.419-4.584zM18 19.057l-5.419-3.871c-0.355-0.254-0.819-0.242-1.162 0l-5.419 3.871v-14.057c0-0.276 0.111-0.525 0.293-0.707s0.431-0.293 0.707-0.293h10c0.276 0 0.525 0.111 0.707 0.293s0.293 0.431 0.293 0.707z"></path>
</symbol>
<symbol id="icon-chevron-right" viewBox="0 0 24 24">
<path d="M9.707 18.707l6-6c0.391-0.391 0.391-1.024 0-1.414l-6-6c-0.391-0.391-1.024-0.391-1.414 0s-0.391 1.024 0 1.414l5.293 5.293-5.293 5.293c-0.391 0.391-0.391 1.024 0 1.414s1.024 0.391 1.414 0z"></path>
</symbol>
<symbol id="icon-home" viewBox="0 0 24 24">
<path d="M2.386 8.211c-0.236 0.184-0.386 0.469-0.386 0.789v11c0 0.828 0.337 1.58 0.879 2.121s1.293 0.879 2.121 0.879h14c0.828 0 1.58-0.337 2.121-0.879s0.879-1.293 0.879-2.121v-11c-0.001-0.3-0.134-0.593-0.386-0.789l-9-7c-0.358-0.275-0.861-0.285-1.228 0zM16 21v-9c0-0.552-0.448-1-1-1h-6c-0.552 0-1 0.448-1 1v9h-3c-0.276 0-0.525-0.111-0.707-0.293s-0.293-0.431-0.293-0.707v-10.511l8-6.222 8 6.222v10.511c0 0.276-0.111 0.525-0.293 0.707s-0.431 0.293-0.707 0.293zM10 21v-8h4v8z"></path>
</symbol>
<symbol id="icon-key" viewBox="0 0 24 24">
<path d="M20.293 1.293l-2 2c-0.391 0.391-0.391 1.024 0 1.414s1.024 0.391 1.414 0l2-2c0.391-0.391 0.391-1.024 0-1.414s-1.024-0.391-1.414 0zM12.092 10.898c-1.262-1.244-2.908-1.869-4.553-1.873-1.652-0.003-3.308 0.62-4.578 1.873-1.277 1.26-1.923 2.921-1.935 4.583s0.614 3.332 1.874 4.609c1.34 1.323 3.009 1.946 4.671 1.935s3.323-0.657 4.583-1.935 1.884-2.947 1.873-4.609-0.657-3.323-1.935-4.583zM10.688 12.322c0.885 0.873 1.332 2.020 1.339 3.173s-0.424 2.306-1.297 3.191-2.020 1.332-3.173 1.339-2.306-0.424-3.191-1.297c-0.916-0.927-1.347-2.080-1.339-3.233s0.455-2.3 1.339-3.173c0.879-0.867 2.023-1.299 3.169-1.296 1.141 0.002 2.279 0.435 3.152 1.296zM12.097 12.317l4.11-4.11c0.391-0.391 0.391-1.024 0-1.414s-1.024-0.391-1.414 0l-4.11 4.11c-0.391 0.391-0.391 1.024 0 1.414s1.024 0.391 1.414 0zM14.793 8.207l3 3c0.391 0.391 1.024 0.391 1.414 0l3.5-3.5c0.391-0.391 0.391-1.024 0-1.414l-3-3c-0.391-0.391-1.024-0.391-1.414 0s-0.391 1.024 0 1.414l2.293 2.293-2.086 2.086-2.293-2.293c-0.391-0.391-1.024-0.391-1.414 0s-0.391 1.024 0 1.414zM16.207 8.207l3.5-3.5c0.391-0.391 0.391-1.024 0-1.414s-1.024-0.391-1.414 0l-3.5 3.5c-0.391 0.391-0.391 1.024 0 1.414s1.024 0.391 1.414 0z"></path>
</symbol>
<symbol id="icon-map" viewBox="0 0 24 24">
<path d="M7 3.723v13.697l-5 2.857v-13.697zM17 20.277v-13.697l5-2.857v13.696zM15.535 22.885c0.082 0.043 0.17 0.075 0.263 0.094 0.033 0.007 0.067 0.012 0.101 0.015s0.068 0.005 0.102 0.005c-0.001 0.001-0.001 0.001-0.001 0.001s0 0 0.001 0c0.173 0 0.344-0.046 0.496-0.132l0.015-0.009 6.985-3.991c0.32-0.183 0.501-0.518 0.503-0.868v-16c0-0.552-0.448-1-1-1-0.183 0-0.354 0.049-0.496 0.132l-6.535 3.734-7.503-3.752c-0.083-0.042-0.171-0.075-0.264-0.094-0.034-0.007-0.067-0.012-0.101-0.015s-0.068-0.005-0.102-0.005c0.001 0 0.001 0 0.001 0s0 0-0.001 0c-0.173 0-0.344 0.046-0.495 0.132l-0.015 0.008-6.985 3.992c-0.321 0.183-0.502 0.518-0.504 0.868v16c0 0.552 0.448 1 1 1 0.183 0 0.354-0.049 0.496-0.132l6.535-3.734zM15 6.618v13.764l-6-3v-13.764z"></path>
</symbol>
<symbol id="icon-map-pin" viewBox="0 0 24 24">
<path d="M22 10c0-2.761-1.12-5.263-2.929-7.071s-4.31-2.929-7.071-2.929-5.263 1.12-7.071 2.929-2.929 4.31-2.929 7.071c0 0.569 0.053 1.128 0.15 1.676 0.274 1.548 0.899 3.004 1.682 4.32 2.732 4.591 7.613 7.836 7.613 7.836 0.331 0.217 0.765 0.229 1.109 0 0 0 4.882-3.245 7.613-7.836 0.783-1.316 1.408-2.772 1.682-4.32 0.098-0.548 0.151-1.107 0.151-1.676zM20 10c0 0.444-0.041 0.887-0.119 1.328-0.221 1.25-0.737 2.478-1.432 3.646-1.912 3.214-5.036 5.747-6.369 6.74-1.398-0.916-4.588-3.477-6.53-6.74-0.695-1.168-1.211-2.396-1.432-3.646-0.077-0.441-0.118-0.884-0.118-1.328 0-2.209 0.894-4.208 2.343-5.657s3.448-2.343 5.657-2.343 4.208 0.894 5.657 2.343 2.343 3.448 2.343 5.657zM16 10c0-1.104-0.449-2.106-1.172-2.828s-1.724-1.172-2.828-1.172-2.106 0.449-2.828 1.172-1.172 1.724-1.172 2.828 0.449 2.106 1.172 2.828 1.724 1.172 2.828 1.172 2.106-0.449 2.828-1.172 1.172-1.724 1.172-2.828zM14 10c0 0.553-0.223 1.051-0.586 1.414s-0.861 0.586-1.414 0.586-1.051-0.223-1.414-0.586-0.586-0.861-0.586-1.414 0.223-1.051 0.586-1.414 0.861-0.586 1.414-0.586 1.051 0.223 1.414 0.586 0.586 0.861 0.586 1.414z"></path>
</symbol>
<symbol id="icon-message-square" viewBox="0 0 24 24">
<path d="M22 15v-10c0-0.828-0.337-1.58-0.879-2.121s-1.293-0.879-2.121-0.879h-14c-0.828 0-1.58 0.337-2.121 0.879s-0.879 1.293-0.879 2.121v16c0 0.256 0.098 0.512 0.293 0.707 0.391 0.391 1.024 0.391 1.414 0l3.707-3.707h11.586c0.828 0 1.58-0.337 2.121-0.879s0.879-1.293 0.879-2.121zM20 15c0 0.276-0.111 0.525-0.293 0.707s-0.431 0.293-0.707 0.293h-12c-0.276 0-0.526 0.112-0.707 0.293l-2.293 2.293v-13.586c0-0.276 0.111-0.525 0.293-0.707s0.431-0.293 0.707-0.293h14c0.276 0 0.525 0.111 0.707 0.293s0.293 0.431 0.293 0.707z"></path>
</symbol>
<symbol id="icon-navigation" viewBox="0 0 24 24">
<path d="M2.572 10.096c-0.262 0.125-0.467 0.36-0.542 0.661-0.134 0.536 0.192 1.079 0.728 1.213l7.418 1.854 1.854 7.418c0.071 0.281 0.261 0.528 0.542 0.661 0.499 0.236 1.095 0.023 1.332-0.476l9-19c0.124-0.263 0.133-0.575 0-0.856-0.236-0.499-0.833-0.712-1.332-0.476zM5.953 10.708l13.945-6.606-6.606 13.945-1.322-5.29c-0.092-0.369-0.378-0.638-0.728-0.728z"></path>
</symbol>
<symbol id="icon-search" viewBox="0 0 24 24">
<path d="M16.041 15.856c-0.034 0.026-0.067 0.055-0.099 0.087s-0.060 0.064-0.087 0.099c-1.258 1.213-2.969 1.958-4.855 1.958-1.933 0-3.682-0.782-4.95-2.050s-2.050-3.017-2.050-4.95 0.782-3.682 2.050-4.95 3.017-2.050 4.95-2.050 3.682 0.782 4.95 2.050 2.050 3.017 2.050 4.95c0 1.886-0.745 3.597-1.959 4.856zM21.707 20.293l-3.675-3.675c1.231-1.54 1.968-3.493 1.968-5.618 0-2.485-1.008-4.736-2.636-6.364s-3.879-2.636-6.364-2.636-4.736 1.008-6.364 2.636-2.636 3.879-2.636 6.364 1.008 4.736 2.636 6.364 3.879 2.636 6.364 2.636c2.125 0 4.078-0.737 5.618-1.968l3.675 3.675c0.391 0.391 1.024 0.391 1.414 0s0.391-1.024 0-1.414z"></path>
</symbol>
<symbol id="icon-star" viewBox="0 0 24 24">
<path d="M12.897 1.557c-0.092-0.189-0.248-0.352-0.454-0.454-0.495-0.244-1.095-0.041-1.339 0.454l-2.858 5.789-6.391 0.935c-0.208 0.029-0.411 0.127-0.571 0.291-0.386 0.396-0.377 1.029 0.018 1.414l4.623 4.503-1.091 6.362c-0.036 0.207-0.006 0.431 0.101 0.634 0.257 0.489 0.862 0.677 1.351 0.42l5.714-3.005 5.715 3.005c0.186 0.099 0.408 0.139 0.634 0.101 0.544-0.093 0.91-0.61 0.817-1.155l-1.091-6.362 4.623-4.503c0.151-0.146 0.259-0.344 0.292-0.572 0.080-0.546-0.298-1.054-0.845-1.134l-6.39-0.934zM12 4.259l2.193 4.444c0.151 0.305 0.436 0.499 0.752 0.547l4.906 0.717-3.549 3.457c-0.244 0.238-0.341 0.569-0.288 0.885l0.837 4.883-4.386-2.307c-0.301-0.158-0.647-0.148-0.931 0l-4.386 2.307 0.837-4.883c0.058-0.336-0.059-0.661-0.288-0.885l-3.549-3.457 4.907-0.718c0.336-0.049 0.609-0.26 0.752-0.546z"></path>
</symbol>
<symbol id="icon-umbrella" viewBox="0 0 24 24">
<path d="M21.84 11h-19.674c0.387-1.824 1.259-3.474 2.485-4.796 1.617-1.744 3.848-2.915 6.394-3.158 2.763-0.264 5.369 0.616 7.354 2.255 1.717 1.418 2.965 3.401 3.441 5.7zM23.995 11.905c-0.316-3.312-1.946-6.184-4.323-8.147s-5.505-3.020-8.817-2.704c-3.052 0.291-5.731 1.699-7.67 3.789-1.759 1.897-2.909 4.357-3.18 7.057-0.055 0.55 0.346 1.040 0.895 1.095 0.035 0.004 0.070 0.005 0.1 0.005h22c0.531 0 0.966-0.414 0.998-0.937-0.001-0.137-0.002-0.148-0.003-0.158zM17 19c0 0.553-0.223 1.051-0.586 1.414s-0.861 0.586-1.414 0.586-1.051-0.223-1.414-0.586-0.586-0.861-0.586-1.414v-7c0-0.552-0.448-1-1-1s-1 0.448-1 1v7c0 1.104 0.449 2.106 1.172 2.828s1.724 1.172 2.828 1.172 2.106-0.449 2.828-1.172 1.172-1.724 1.172-2.828c0-0.552-0.448-1-1-1s-1 0.448-1 1z"></path>
</symbol>
<symbol id="icon-airplane" viewBox="0 0 32 32">
<path d="M24 19.999l-5.713-5.713 13.713-10.286-4-4-17.141 6.858-5.397-5.397c-1.556-1.556-3.728-1.928-4.828-0.828s-0.727 3.273 0.828 4.828l5.396 5.396-6.858 17.143 4 4 10.287-13.715 5.713 5.713v7.999h4l2-6 6-2v-4l-7.999 0z"></path>
</symbol>
</defs>
</svg>
